<?xml version="1.0" encoding="iso-8859-1"?>
<!-- Generator: Adobe Illustrator 17.1.0, SVG Export Plug-In . SVG Version: 6.00 Build 0)  -->
<!DOCTYPE svg PUBLIC "-//W3C//DTD SVG 1.1//EN" "http://www.w3.org/Graphics/SVG/1.1/DTD/svg11.dtd">
<svg version="1.1" id="Capa_1" xmlns="http://www.w3.org/2000/svg" xmlns:xlink="http://www.w3.org/1999/xlink" x="0px" y="0px"
	 viewBox="0 0 204 204" style="enable-background:new 0 0 204 204;" xml:space="preserve">
<path d="M92.388,204H31.954c-4.64,0-8.414-3.775-8.414-8.415v-27.278c0-4.64,3.774-8.414,8.414-8.414h4.754v-15.179
	c0-1.104,0.896-2,2-2h23.538c0.724-1.916,2.302-5.926,5.129-12.383c-1.379-1.411-3.633-4.296-5.85-9.652
	c-3.322-8.029-3.36-16.453-3.36-16.807c0-0.696,0.362-1.343,0.957-1.706c0.594-0.363,1.334-0.391,1.955-0.075
	c2.6,1.33,5.542,2.747,7.833,3.761c-1.596-2.497-3.929-5.871-6.082-8.824c-0.292-0.4-0.425-0.895-0.373-1.388
	c0.022-0.217,0.609-5.456,4.917-17.573c4.479-12.599,19.013-20.789,19.63-21.132c0.62-0.343,1.375-0.334,1.985,0.025
	c0.526,0.31,0.877,0.838,0.964,1.432c5.491-12.554,17.031-32.486,36.315-37.212c26.652-6.533,50.819-20.758,51.06-20.901
	c0.582-0.345,1.297-0.373,1.904-0.074c0.606,0.298,1.021,0.883,1.102,1.554c0.046,0.381,1.077,9.463-3.601,21.297
	c-1.979,5.006-5.086,8.089-8.142,9.988l3.811,0.389c0.591,0.061,1.125,0.381,1.457,0.875s0.426,1.109,0.259,1.68
	c-0.058,0.195-1.448,4.854-5.01,10.881c-3.398,5.75-28.904,37.94-41.756,46.881c-7.099,4.938-16.137,8.455-22.75,10.601l3.192,0.486
	c0.671,0.102,1.245,0.538,1.523,1.157s0.224,1.338-0.146,1.908c-0.388,0.599-9.636,14.782-20.679,24.479
	c-9.082,7.973-16.631,6.552-19.911,5.296c-0.892,2.133-1.563,3.805-2.045,5.038h19.099c1.104,0,2,0.896,2,2v15.179h4.754
	c4.64,0,8.414,3.774,8.414,8.414v27.278C100.802,200.225,97.027,204,92.388,204z M31.954,163.893c-2.434,0-4.414,1.98-4.414,4.414
	v27.278c0,2.434,1.98,4.415,4.414,4.415h60.434c2.434,0,4.414-1.98,4.414-4.415v-27.278c0-2.434-1.98-4.414-4.414-4.414H31.954z
	 M40.708,159.893h42.925v-13.179H63.672c-0.021,0-0.041,0-0.062,0H40.708V159.893z M70.41,134.093
	c2.533,0.845,8.251,1.595,15.441-4.719c7.881-6.92,15.008-16.516,18.198-21.062l-9.157-1.394c-0.95-0.145-1.662-0.943-1.698-1.903
	c-0.036-0.96,0.616-1.81,1.553-2.024c0.183-0.042,18.491-4.297,30.32-12.526c12.179-8.473,37.383-40.196,40.597-45.633
	c1.844-3.121,3.067-5.864,3.789-7.68l-10.559-1.077c-1.05-0.107-1.836-1.013-1.795-2.067c0.041-1.055,0.896-1.896,1.951-1.922
	c0.398-0.013,9.983-0.432,13.963-10.5c2.735-6.918,3.352-12.815,3.435-16.22c-7.325,4.013-27.449,14.362-49.227,19.7
	c-25.82,6.328-37.214,44.488-37.326,44.873c-0.278,0.956-1.213,1.566-2.203,1.421c-0.986-0.141-1.718-0.984-1.718-1.979v-7.051
	c-4.292,2.956-12.015,9.155-14.833,17.08c-3.234,9.099-4.291,14.161-4.597,15.93c8.742,12.051,8.421,13.371,8.208,14.249
	c-0.151,0.622-0.562,1.14-1.125,1.422c-0.8,0.399-1.778,0.887-11.249-3.785c0.305,2.999,1.045,7.579,2.844,11.926
	c1.461,3.531,2.907,5.798,3.978,7.175c6.164-12.84,22.603-41.83,37.313-63.161c16.1-23.344,46.254-41.905,47.53-42.684
	c0.942-0.577,2.173-0.279,2.749,0.665c0.575,0.942,0.278,2.173-0.665,2.749c-0.305,0.187-30.711,18.907-46.321,41.541
	c-16.179,23.46-33.854,55.41-38.154,65.109L70.41,134.093z"/>
<g>
</g>
<g>
</g>
<g>
</g>
<g>
</g>
<g>
</g>
<g>
</g>
<g>
</g>
<g>
</g>
<g>
</g>
<g>
</g>
<g>
</g>
<g>
</g>
<g>
</g>
<g>
</g>
<g>
</g>
</svg>
